<svg width="20" height="20" viewBox="0 0 20 20" fill="none" xmlns="http://www.w3.org/2000/svg">
<path d="M19.78 9.88L17.78 7.38C17.6869 7.26215 17.5684 7.16679 17.4334 7.101C17.2984 7.03521 17.1502 7.00069 17 7H11V1C11 0.734784 10.8947 0.48043 10.7071 0.292893C10.5196 0.105357 10.2653 0 10 0C9.73482 0 9.48047 0.105357 9.29293 0.292893C9.10539 0.48043 9.00004 0.734784 9.00004 1V2H3.00004C2.84983 2.00069 2.70171 2.03521 2.56668 2.101C2.43164 2.16679 2.31316 2.26215 2.22004 2.38L0.220037 4.88C0.0805279 5.05655 0.00463867 5.27499 0.00463867 5.5C0.00463867 5.72501 0.0805279 5.94345 0.220037 6.12L2.22004 8.62C2.31316 8.73785 2.43164 8.83321 2.56668 8.899C2.70171 8.96479 2.84983 8.99931 3.00004 9H9.00004V18H7.00004C6.73482 18 6.48047 18.1054 6.29293 18.2929C6.10539 18.4804 6.00004 18.7348 6.00004 19C6.00004 19.2652 6.10539 19.5196 6.29293 19.7071C6.48047 19.8946 6.73482 20 7.00004 20H13C13.2653 20 13.5196 19.8946 13.7071 19.7071C13.8947 19.5196 14 19.2652 14 19C14 18.7348 13.8947 18.4804 13.7071 18.2929C13.5196 18.1054 13.2653 18 13 18H11V14H17C17.1502 13.9993 17.2984 13.9648 17.4334 13.899C17.5684 13.8332 17.6869 13.7379 17.78 13.62L19.78 11.12C19.9195 10.9435 19.9954 10.725 19.9954 10.5C19.9954 10.275 19.9195 10.0565 19.78 9.88V9.88ZM9.00004 7H3.48004L2.28004 5.5L3.48004 4H9.00004V7ZM16.52 12H11V9H16.52L17.72 10.5L16.52 12Z" fill="#013613"/>
</svg>
