<svg width="48" height="48" viewBox="0 0 48 48" fill="none" xmlns="http://www.w3.org/2000/svg">
<path d="M11.2992 35.6779L8.1517 13.4678H39.8483L36.7008 35.6779C36.231 38.9937 33.3926 41.4581 30.0438 41.4581H17.9562C14.6074 41.4581 11.769 38.9937 11.2992 35.6779Z" stroke="#013613" stroke-width="2" stroke-linecap="round"/>
<path d="M24.4428 34.7189L23.7045 34.728L23.4785 34.0251C22.6049 31.3087 22.9061 28.185 24.5606 25.6343C26.2195 23.0767 28.8734 21.6653 31.6098 21.6314L32.3481 21.6223L32.5741 22.3252C33.4477 25.0416 33.1465 28.1653 31.492 30.7161C29.8331 33.2737 27.1792 34.685 24.4428 34.7189Z" fill="#013613" stroke="#013613" stroke-width="2"/>
<path d="M21.8795 30.2475C22.9941 31.9659 23.3127 34.0444 22.9065 35.9564C21.1945 35.7126 19.5592 34.7213 18.4631 33.0315C17.3485 31.3131 17.0299 29.2346 17.4361 27.3226C19.148 27.5664 20.7834 28.5577 21.8795 30.2475Z" fill="#013613" stroke="#013613" stroke-width="2"/>
<path d="M24.4983 38.3391C24.4983 38.3391 23.3771 36.8829 24.4983 34.5332C25.6196 32.1836 26.5247 30.1097 28.4737 29.0994" stroke="#013613" stroke-width="2" stroke-linecap="round"/>
<path fill-rule="evenodd" clip-rule="evenodd" d="M8.11611 14.7777C10.5603 17.209 16.7501 18.9356 23.9999 18.9356C31.2496 18.9356 37.4394 17.209 39.8836 14.7777C37.4394 12.3464 31.2496 10.6199 23.9999 10.6199C16.7501 10.6199 10.5603 12.3464 8.11611 14.7777Z" fill="#013613"/>
<path d="M24 18.1666C19.3969 18.1666 15.2749 17.4423 12.3403 16.3059C10.8698 15.7364 9.74809 15.0829 9.01123 14.4082C8.27501 13.7342 8 13.1162 8 12.5833C8 12.0503 8.27501 11.4324 9.01123 10.7583C9.74809 10.0837 10.8698 9.43019 12.3403 8.86072C15.2749 7.72428 19.3969 7 24 7C28.6031 7 32.7251 7.72429 35.6597 8.86072C37.1302 9.43019 38.2519 10.0837 38.9888 10.7583C39.725 11.4324 40 12.0503 40 12.5833C40 13.1162 39.725 13.7342 38.9888 14.4082C38.2519 15.0829 37.1302 15.7364 35.6597 16.3059C32.7251 17.4423 28.6031 18.1666 24 18.1666Z" stroke="#013613" stroke-width="2"/>
</svg>
