<svg width="48" height="48" viewBox="0 0 48 48" fill="none" xmlns="http://www.w3.org/2000/svg">
<path d="M25.1339 34.4909C24.2334 34.0227 23.1572 34.0415 22.2737 34.5409L18.8693 36.4651C18.1645 36.3127 17.396 36.3594 16.7291 36.6061L12.8639 38.0359C12.2759 38.2534 11.7717 38.6084 11.4732 39.1191C11.1631 39.6499 11.1341 40.2547 11.3502 40.7924C11.7659 41.8267 12.9287 42.3777 14.1771 42.3777H34.2435C35.5114 42.3777 36.6908 41.8105 37.0878 40.7477C37.2938 40.1962 37.2426 39.5859 36.913 39.0612C36.596 38.5566 36.0759 38.2113 35.4716 38.0057L31.2704 36.5759C30.5624 36.335 29.7489 36.3135 29.0214 36.5124L25.1339 34.4909Z" stroke="#013613" stroke-width="2"/>
<path d="M26.9001 13.676C24.9316 16.6148 24.4802 20.2006 25.3828 23.4047C28.5235 23.2015 31.5593 21.5569 33.5203 18.6292C35.4888 15.6904 35.9402 12.1045 35.0376 8.9005C31.8969 9.10367 28.8611 10.7483 26.9001 13.676Z" fill="#013613" stroke="#013613" stroke-width="1.45455"/>
<path d="M25 22C25.028 21.3218 25.4571 20.5975 25.863 20.0406C26.6565 18.9519 27.7215 18.0737 28.6545 17.0872C29.4174 16.2806 30.3716 15.626 31.1263 14.822C31.3816 14.5501 31.8237 14.3164 32 14" stroke="#013613" stroke-width="2" stroke-linecap="round"/>
<path d="M25.6396 26.0831C27.319 21.9307 27.1368 17.0318 24.7388 12.9059C22.3408 8.78004 18.2771 6.37373 13.9957 6.04913C12.3163 10.2015 12.4985 15.1004 14.8965 19.2263C17.2945 23.3522 21.3582 25.7585 25.6396 26.0831Z" fill="#013613"/>
<path d="M20.2615 16.1526C20.5081 16.3805 20.6877 16.692 20.8831 16.9616C21.4499 17.7437 22.0376 18.5236 22.5489 19.3436C23.0129 20.0877 23.4211 20.8489 23.8096 21.6335C24.4963 23.0203 25.2328 24.689 25.2045 26.2676C25.1849 27.3568 25.1763 28.4071 24.9954 29.4872C24.8889 30.1234 24.7741 30.7537 24.6495 31.3858C24.5638 31.8203 24.5414 32.2715 24.4359 32.6983C24.4 32.8432 24.2194 33.4887 24.3369 33.5924" stroke="#013613" stroke-width="2" stroke-linecap="round"/>
<path d="M20.3057 15.6147C20.3057 15.2861 20.3953 14.9706 20.4646 14.6518C20.5035 14.4722 20.5362 14.2918 20.5769 14.1125C20.6328 13.8664 20.6401 13.6132 20.6949 13.367C20.7542 13.1 20.7928 12.8302 20.8602 12.5645C20.8929 12.4357 20.9194 12.3052 20.9476 12.1754C20.9587 12.1246 20.9846 12.0704 20.9846 12.0181" stroke="#013613" stroke-width="2" stroke-linecap="round"/>
<path d="M19.9735 15.9613C19.7623 15.9532 19.5531 15.8444 19.3475 15.8024C19.0886 15.7495 18.83 15.6881 18.5723 15.6291C18.3834 15.5857 18.2027 15.5058 18.0203 15.4413C17.9226 15.4068 17.82 15.3853 17.7209 15.3546C17.675 15.3404 17.6246 15.3113 17.5757 15.3113" stroke="#013613" stroke-width="2" stroke-linecap="round"/>
</svg>
