<svg width="14" height="20" viewBox="0 0 14 20" fill="none" xmlns="http://www.w3.org/2000/svg">
<path d="M13.08 4.99955C12.9486 4.98862 12.8163 5.00378 12.6908 5.04416C12.5653 5.08455 12.449 5.14936 12.3486 5.23487C12.2482 5.32037 12.1658 5.42489 12.1059 5.54239C12.0461 5.6599 12.0101 5.78808 12 5.91955L11.65 10.4696C11.1876 10.3264 10.7728 10.0603 10.45 9.69955C10.3562 9.59315 10.2408 9.50793 10.1115 9.44955C9.98215 9.39118 9.8419 9.36099 9.70003 9.36099C9.55815 9.36099 9.4179 9.39118 9.28859 9.44955C9.15928 9.50793 9.04387 9.59315 8.95003 9.69955C8.70183 9.96926 8.40039 10.1846 8.06474 10.3318C7.7291 10.4791 7.36656 10.5551 7.00003 10.5551C6.6335 10.5551 6.27095 10.4791 5.93531 10.3318C5.59967 10.1846 5.29822 9.96926 5.05003 9.69955C4.95619 9.59315 4.84078 9.50793 4.71147 9.44955C4.58215 9.39118 4.4419 9.36099 4.30003 9.36099C4.15815 9.36099 4.0179 9.39118 3.88859 9.44955C3.75928 9.50793 3.64387 9.59315 3.55003 9.69955C3.22625 10.0591 2.8118 10.325 2.35003 10.4696L2.00003 5.91955C1.98993 5.78808 1.95394 5.6599 1.89411 5.54239C1.83428 5.42489 1.75181 5.32037 1.65143 5.23487C1.55105 5.14936 1.43475 5.08455 1.30923 5.04416C1.1837 5.00378 1.05143 4.98862 0.920027 4.99955C0.788554 5.00965 0.660375 5.04565 0.542868 5.10547C0.425361 5.1653 0.320846 5.24778 0.235339 5.34815C0.149832 5.44853 0.0850211 5.56483 0.0446366 5.69035C0.00425215 5.81588 -0.0109087 5.94815 2.70857e-05 6.07955L0.860027 17.2296C0.918088 17.9847 1.25961 18.6899 1.81605 19.2037C2.37249 19.7175 3.10267 20.0018 3.86003 19.9996H10.16C10.9174 20.0018 11.6476 19.7175 12.204 19.2037C12.7604 18.6899 13.102 17.9847 13.16 17.2296L14 6.07955C14.011 5.94815 13.9958 5.81588 13.9554 5.69035C13.915 5.56483 13.8502 5.44853 13.7647 5.34815C13.6792 5.24778 13.5747 5.1653 13.4572 5.10547C13.3397 5.04565 13.2115 5.00965 13.08 4.99955ZM11.14 17.0796C11.1199 17.3307 11.0057 17.5649 10.8203 17.7355C10.6349 17.9061 10.3919 18.0004 10.14 17.9996H3.85003C3.59811 18.0004 3.35516 17.9061 3.16977 17.7355C2.98437 17.5649 2.87018 17.3307 2.85003 17.0796L2.50003 12.4996C3.14837 12.364 3.76138 12.095 4.30003 11.7096C5.08871 12.2702 6.03237 12.5715 7.00003 12.5715C7.96769 12.5715 8.91134 12.2702 9.70003 11.7096C10.2387 12.095 10.8517 12.364 11.5 12.4996L11.14 17.0796ZM7.00003 7.99955C7.86117 7.99692 8.68629 7.65366 9.29521 7.04474C9.90413 6.43581 10.2474 5.6107 10.25 4.74955C10.25 1.99955 7.67003 0.239554 7.56003 0.169554C7.39466 0.0577784 7.19963 -0.00195312 7.00003 -0.00195312C6.80043 -0.00195313 6.60539 0.0577784 6.44003 0.169554C6.33003 0.249554 3.75003 1.99955 3.75003 4.74955C3.75266 5.6107 4.09592 6.43581 4.70484 7.04474C5.31377 7.65366 6.13888 7.99692 7.00003 7.99955V7.99955ZM7.00003 2.29955C7.72367 2.91928 8.17298 3.79994 8.25003 4.74955C8.25003 5.08107 8.11833 5.39902 7.88391 5.63344C7.64949 5.86786 7.33155 5.99955 7.00003 5.99955C6.66851 5.99955 6.35056 5.86786 6.11614 5.63344C5.88172 5.39902 5.75003 5.08107 5.75003 4.74955C5.83232 3.80143 6.28068 2.92265 7.00003 2.29955V2.29955Z" fill="#013613"/>
</svg>
