<?xml version="1.0" standalone="no"?>
<!DOCTYPE svg PUBLIC "-//W3C//DTD SVG 20010904//EN"
 "http://www.w3.org/TR/2001/REC-SVG-20010904/DTD/svg10.dtd">
<svg version="1.0" xmlns="http://www.w3.org/2000/svg"
 width="24.000000pt" height="24.000000pt" viewBox="0 0 24.000000 24.000000"
 preserveAspectRatio="xMidYMid meet">

<g transform="translate(0.000000,24.000000) scale(0.100000,-0.100000)"
fill="#000000" stroke="none">
<path d="M109 228 c0 -7 0 -33 1 -57 1 -31 -2 -41 -10 -36 -7 4 -10 19 -7 34
4 21 1 29 -18 37 -13 7 -26 9 -30 6 -9 -9 -6 -34 4 -28 5 3 11 0 14 -7 4 -10
-2 -13 -19 -9 -23 4 -24 2 -18 -24 4 -15 13 -39 20 -53 8 -14 14 -35 15 -46
l0 -20 8 20 c5 12 4 23 -3 27 -6 4 16 7 49 6 56 -1 58 -1 20 -8 l-40 -7 38 -2
c37 -1 45 -12 28 -40 -6 -9 -22 -12 -49 -9 -22 2 -38 0 -36 -4 3 -5 23 -8 44
-8 36 0 41 3 60 41 21 44 18 64 -8 54 -14 -5 -14 -3 1 13 26 29 20 38 -8 12
-14 -13 -25 -19 -25 -13 0 10 24 33 49 48 11 7 13 2 7 -26 -8 -39 8 -28 18 14
5 20 3 27 -8 27 -8 0 -18 5 -22 12 -4 7 -3 8 4 4 7 -4 12 -1 12 7 0 22 -9 25
-35 13 -19 -8 -22 -16 -18 -37 3 -15 0 -30 -7 -34 -9 -5 -11 4 -10 36 3 58 2
69 -10 69 -5 0 -10 -6 -11 -12z m-11 -116 c2 -7 -4 -15 -13 -18 -22 -9 -50 19
-41 41 6 15 9 16 28 3 12 -8 24 -20 26 -26z"/>
<path d="M60 120 c6 -11 16 -20 22 -20 6 0 3 9 -7 20 -10 11 -20 20 -22 20 -2
0 1 -9 7 -20z"/>
</g>
</svg>
