<svg width="19" height="20" viewBox="0 0 19 20" fill="none" xmlns="http://www.w3.org/2000/svg">
<path d="M6.5 5.75151C6.5 3.00151 3.92 1.24151 3.81 1.17151C3.64463 1.05973 3.4496 1 3.25 1C3.0504 1 2.85537 1.05973 2.69 1.17151C2.58 1.25151 0 3.00151 0 5.75151C0 6.61346 0.34241 7.44011 0.951903 8.0496C1.5614 8.6591 2.38805 9.00151 3.25 9.00151C4.11195 9.00151 4.9386 8.6591 5.5481 8.0496C6.15759 7.44011 6.5 6.61346 6.5 5.75151V5.75151ZM3.25 7.00151C2.91848 7.00151 2.60054 6.86981 2.36612 6.63539C2.1317 6.40097 2 6.08303 2 5.75151C2.08229 4.80339 2.53065 3.9246 3.25 3.30151C3.97364 3.92123 4.42296 4.80189 4.5 5.75151C4.5 6.08303 4.3683 6.40097 4.13388 6.63539C3.89946 6.86981 3.58152 7.00151 3.25 7.00151V7.00151ZM9.31 8.17151C9.14463 8.05973 8.9496 8 8.75 8C8.5504 8 8.35537 8.05973 8.19 8.17151C8.02 8.29151 4 11.0715 4 15.2515C4 16.5113 4.50045 17.7195 5.39124 18.6103C6.28204 19.5011 7.49022 20.0015 8.75 20.0015C10.0098 20.0015 11.218 19.5011 12.1088 18.6103C12.9996 17.7195 13.5 16.5113 13.5 15.2515C13.5 11.0015 9.5 8.28151 9.31 8.17151V8.17151ZM8.75 18.0015C8.38886 18.0015 8.03127 17.9304 7.69762 17.7922C7.36398 17.654 7.06082 17.4514 6.80546 17.1961C6.5501 16.9407 6.34753 16.6375 6.20933 16.3039C6.07113 15.9702 6 15.6126 6 15.2515C6 12.9415 7.81 11.0815 8.76 10.2515C9.7 11.0415 11.5 12.8815 11.5 15.2515C11.5 15.6126 11.4289 15.9702 11.2907 16.3039C11.1525 16.6375 10.9499 16.9407 10.6945 17.1961C10.4392 17.4514 10.136 17.654 9.80238 17.7922C9.46873 17.9304 9.11114 18.0015 8.75 18.0015V18.0015ZM15.56 0.171507C15.3946 0.0597315 15.1996 0 15 0C14.8004 0 14.6054 0.0597315 14.44 0.171507C14.3 0.271507 11 2.55151 11 6.00151C11 7.06237 11.4214 8.07979 12.1716 8.82994C12.9217 9.58008 13.9391 10.0015 15 10.0015C16.0609 10.0015 17.0783 9.58008 17.8284 8.82994C18.5786 8.07979 19 7.06237 19 6.00151C19 2.51151 15.7 0.261507 15.56 0.171507ZM15 8.00151C14.4696 8.00151 13.9609 7.79079 13.5858 7.41572C13.2107 7.04065 13 6.53194 13 6.00151C13.0685 5.27943 13.2808 4.57834 13.6242 3.93949C13.9677 3.30064 14.4355 2.73693 15 2.28151C15.5666 2.73498 16.0359 3.29822 16.3795 3.93745C16.7232 4.57668 16.9343 5.27873 17 6.00151C17 6.53194 16.7893 7.04065 16.4142 7.41572C16.0391 7.79079 15.5304 8.00151 15 8.00151Z" fill="#013613"/>
</svg>
