<svg width="13" height="22" viewBox="0 0 13 22" fill="none" xmlns="http://www.w3.org/2000/svg">
<path d="M7.00125 14.28V4.5C7.00125 4.23478 6.89589 3.98043 6.70835 3.79289C6.52082 3.60536 6.26646 3.5 6.00125 3.5C5.73603 3.5 5.48168 3.60536 5.29414 3.79289C5.10661 3.98043 5.00125 4.23478 5.00125 4.5V14.28C4.69897 14.4545 4.44763 14.7051 4.2722 15.0068C4.09677 15.3086 4.00336 15.651 4.00125 16C4.00125 16.5304 4.21196 17.0391 4.58704 17.4142C4.96211 17.7893 5.47082 18 6.00125 18C6.53168 18 7.04039 17.7893 7.41546 17.4142C7.79053 17.0391 8.00125 16.5304 8.00125 16C7.99914 15.651 7.90573 15.3086 7.7303 15.0068C7.55487 14.7051 7.30352 14.4545 7.00125 14.28ZM10.5012 12V4.5C10.5012 3.30653 10.0271 2.16193 9.18323 1.31802C8.33931 0.474106 7.19472 0 6.00125 0C4.80777 0 3.66318 0.474106 2.81927 1.31802C1.97535 2.16193 1.50125 3.30653 1.50125 4.5V12C0.810091 12.7832 0.335376 13.7333 0.12406 14.7562C-0.087255 15.7792 -0.0278489 16.8396 0.296403 17.8326C0.620654 18.8255 1.19852 19.7166 1.97283 20.4177C2.74714 21.1188 3.69107 21.6056 4.71125 21.83C5.13504 21.9266 5.5669 21.9835 6.00125 22C7.16187 22.0054 8.29915 21.6741 9.27526 21.0461C10.2514 20.4182 11.0244 19.5207 11.5007 18.4623C11.977 17.4038 12.1361 16.23 11.9587 15.083C11.7813 13.936 11.275 12.8651 10.5012 12V12ZM8.50125 19.07C7.97455 19.4982 7.34753 19.7854 6.67922 19.9044C6.01092 20.0234 5.32332 19.9704 4.68115 19.7504C4.03899 19.5303 3.46339 19.1505 3.00855 18.6465C2.55371 18.1426 2.2346 17.5313 2.08125 16.87C1.92675 16.2015 1.94679 15.5046 2.13943 14.8461C2.33207 14.1876 2.69083 13.5898 3.18125 13.11C3.27574 13.0174 3.35091 12.9069 3.4024 12.7851C3.4539 12.6632 3.4807 12.5323 3.48125 12.4V4.5C3.48125 3.83696 3.74464 3.20107 4.21348 2.73223C4.68232 2.26339 5.31821 2 5.98125 2C6.64429 2 7.28017 2.26339 7.74901 2.73223C8.21786 3.20107 8.48125 3.83696 8.48125 4.5V12.44C8.4818 12.5723 8.5086 12.7032 8.56009 12.8251C8.61159 12.9469 8.68676 13.0574 8.78125 13.15C9.19 13.5449 9.50991 14.0223 9.71967 14.5505C9.92943 15.0787 10.0242 15.6456 9.99773 16.2133C9.97123 16.781 9.82406 17.3366 9.56602 17.843C9.30798 18.3493 8.945 18.7949 8.50125 19.15V19.07Z" fill="#013613"/>
</svg>
