<svg width="20" height="18" viewBox="0 0 20 18" fill="none" xmlns="http://www.w3.org/2000/svg">
<path d="M15.66 5.34C15.9223 5.3389 16.1737 5.23474 16.36 5.05L17.07 4.34C17.1747 4.25035 17.2597 4.14003 17.3197 4.01597C17.3797 3.89191 17.4135 3.75677 17.4188 3.61905C17.4241 3.48133 17.4009 3.344 17.3506 3.21568C17.3004 3.08735 17.2241 2.9708 17.1266 2.87335C17.0292 2.77589 16.9126 2.69964 16.7843 2.64936C16.656 2.59909 16.5187 2.57588 16.3809 2.5812C16.2432 2.58652 16.1081 2.62025 15.984 2.68027C15.86 2.7403 15.7496 2.82532 15.66 2.93L15 3.64C14.8137 3.82736 14.7092 4.08081 14.7092 4.345C14.7092 4.60919 14.8137 4.86264 15 5.05C15.1763 5.22536 15.4116 5.32875 15.66 5.34V5.34ZM10 3C10.2652 3 10.5196 2.89464 10.7071 2.70711C10.8946 2.51957 11 2.26522 11 2V1C11 0.734784 10.8946 0.48043 10.7071 0.292893C10.5196 0.105357 10.2652 0 10 0C9.73478 0 9.48043 0.105357 9.29289 0.292893C9.10536 0.48043 9 0.734784 9 1V2C9 2.26522 9.10536 2.51957 9.29289 2.70711C9.48043 2.89464 9.73478 3 10 3ZM2 9H1C0.734784 9 0.48043 9.10536 0.292893 9.29289C0.105357 9.48043 0 9.73478 0 10C0 10.2652 0.105357 10.5196 0.292893 10.7071C0.48043 10.8946 0.734784 11 1 11H2C2.26522 11 2.51957 10.8946 2.70711 10.7071C2.89464 10.5196 3 10.2652 3 10C3 9.73478 2.89464 9.48043 2.70711 9.29289C2.51957 9.10536 2.26522 9 2 9ZM3.64 5.05C3.82626 5.23474 4.07766 5.3389 4.34 5.34C4.47161 5.34076 4.60207 5.31554 4.72391 5.26577C4.84574 5.21601 4.95656 5.14268 5.05 5.05C5.23625 4.86264 5.34079 4.60919 5.34079 4.345C5.34079 4.08081 5.23625 3.82736 5.05 3.64L4.34 2.93C4.1487 2.76617 3.90262 2.68057 3.65095 2.69029C3.39927 2.70001 3.16053 2.80434 2.98244 2.98244C2.80434 3.16053 2.70001 3.39927 2.69029 3.65095C2.68057 3.90262 2.76617 4.1487 2.93 4.34L3.64 5.05ZM19 9H18C17.7348 9 17.4804 9.10536 17.2929 9.29289C17.1054 9.48043 17 9.73478 17 10C17 10.2652 17.1054 10.5196 17.2929 10.7071C17.4804 10.8946 17.7348 11 18 11H19C19.2652 11 19.5196 10.8946 19.7071 10.7071C19.8946 10.5196 20 10.2652 20 10C20 9.73478 19.8946 9.48043 19.7071 9.29289C19.5196 9.10536 19.2652 9 19 9ZM9 16H6C5.73478 16 5.48043 16.1054 5.29289 16.2929C5.10536 16.4804 5 16.7348 5 17C5 17.2652 5.10536 17.5196 5.29289 17.7071C5.48043 17.8946 5.73478 18 6 18H9C9.26522 18 9.51957 17.8946 9.70711 17.7071C9.89464 17.5196 10 17.2652 10 17C10 16.7348 9.89464 16.4804 9.70711 16.2929C9.51957 16.1054 9.26522 16 9 16ZM16 12H15.12C15.3726 11.3635 15.5015 10.6848 15.5 10C15.5 8.54131 14.9205 7.14236 13.8891 6.11091C12.8576 5.07946 11.4587 4.5 10 4.5C8.54131 4.5 7.14236 5.07946 6.11091 6.11091C5.07946 7.14236 4.5 8.54131 4.5 10C4.49848 10.6848 4.62744 11.3635 4.88 12H4C3.73478 12 3.48043 12.1054 3.29289 12.2929C3.10536 12.4804 3 12.7348 3 13C3 13.2652 3.10536 13.5196 3.29289 13.7071C3.48043 13.8946 3.73478 14 4 14H16C16.2652 14 16.5196 13.8946 16.7071 13.7071C16.8946 13.5196 17 13.2652 17 13C17 12.7348 16.8946 12.4804 16.7071 12.2929C16.5196 12.1054 16.2652 12 16 12ZM12.85 12H7.15C6.72987 11.4175 6.50258 10.7182 6.5 10C6.5 9.07174 6.86875 8.1815 7.52513 7.52513C8.1815 6.86875 9.07174 6.5 10 6.5C10.9283 6.5 11.8185 6.86875 12.4749 7.52513C13.1313 8.1815 13.5 9.07174 13.5 10C13.4974 10.7182 13.2701 11.4175 12.85 12ZM14 16H13C12.7348 16 12.4804 16.1054 12.2929 16.2929C12.1054 16.4804 12 16.7348 12 17C12 17.2652 12.1054 17.5196 12.2929 17.7071C12.4804 17.8946 12.7348 18 13 18H14C14.2652 18 14.5196 17.8946 14.7071 17.7071C14.8946 17.5196 15 17.2652 15 17C15 16.7348 14.8946 16.4804 14.7071 16.2929C14.5196 16.1054 14.2652 16 14 16Z" fill="#013613"/>
</svg>
