<svg width="20" height="18" viewBox="0 0 20 18" fill="none" xmlns="http://www.w3.org/2000/svg">
<path d="M19 16H13C12.2044 16 11.4413 15.6839 10.8787 15.1213C10.3161 14.5587 10 13.7956 10 13V5C10 4.20435 10.3161 3.44129 10.8787 2.87868C11.4413 2.31607 12.2044 2 13 2H19C19.2652 2 19.5196 1.89464 19.7071 1.70711C19.8946 1.51957 20 1.26522 20 1C20 0.734784 19.8946 0.48043 19.7071 0.292893C19.5196 0.105357 19.2652 0 19 0H13C11.6739 0 10.4021 0.526784 9.46447 1.46447C8.52679 2.40215 8 3.67392 8 5V13C8 14.3261 8.52679 15.5979 9.46447 16.5355C10.4021 17.4732 11.6739 18 13 18H19C19.2652 18 19.5196 17.8946 19.7071 17.7071C19.8946 17.5196 20 17.2652 20 17C20 16.7348 19.8946 16.4804 19.7071 16.2929C19.5196 16.1054 19.2652 16 19 16ZM3 0C2.40666 0 1.82664 0.175947 1.33329 0.505591C0.839943 0.835235 0.455426 1.30377 0.228363 1.85195C0.00129986 2.40013 -0.0581102 3.00333 0.0576455 3.58527C0.173401 4.16721 0.459124 4.70176 0.878681 5.12132C1.29824 5.54088 1.83279 5.8266 2.41473 5.94236C2.99667 6.05811 3.59987 5.9987 4.14805 5.77164C4.69623 5.54458 5.16477 5.16006 5.49441 4.66671C5.82405 4.17336 6 3.59334 6 3C6 2.20435 5.68393 1.44129 5.12132 0.87868C4.55871 0.316071 3.79565 0 3 0ZM3 4C2.80222 4 2.60888 3.94135 2.44443 3.83147C2.27998 3.72159 2.15181 3.56541 2.07612 3.38268C2.00043 3.19996 1.98063 2.99889 2.01922 2.80491C2.0578 2.61093 2.15304 2.43275 2.29289 2.29289C2.43275 2.15304 2.61093 2.0578 2.80491 2.01921C2.99889 1.98063 3.19996 2.00043 3.38268 2.07612C3.56541 2.15181 3.72159 2.27998 3.83147 2.44443C3.94135 2.60888 4 2.80222 4 3C4 3.26522 3.89464 3.51957 3.70711 3.70711C3.51957 3.89464 3.26522 4 3 4Z" fill="#013613"/>
</svg>
