<svg width="20" height="17" viewBox="0 0 20 17" fill="none" xmlns="http://www.w3.org/2000/svg">
<path d="M13.4 7.20253L8.5 4.04253C8.34798 3.95476 8.17554 3.90856 8 3.90856C7.82446 3.90856 7.65202 3.95476 7.5 4.04253C7.35174 4.12805 7.22791 4.25019 7.14036 4.39727C7.05282 4.54435 7.00449 4.71143 7 4.88253V11.2025C7.0013 11.3807 7.05019 11.5553 7.14161 11.7083C7.23303 11.8612 7.36367 11.987 7.52 12.0725C7.66543 12.1582 7.83123 12.2031 8 12.2025C8.17714 12.1903 8.34869 12.1354 8.5 12.0425L13.4 8.88253C13.5403 8.79187 13.6557 8.6675 13.7356 8.52076C13.8155 8.37403 13.8574 8.20961 13.8574 8.04253C13.8574 7.87545 13.8155 7.71103 13.7356 7.5643C13.6557 7.41756 13.5403 7.29319 13.4 7.20253ZM9 9.36253V6.72253L11 8.04253L9 9.36253ZM17.38 0.552531L15.83 0.35253C11.991 -0.11751 8.109 -0.11751 4.27 0.35253L2.72 0.552531C1.97471 0.633639 1.2854 0.986398 0.783675 1.54346C0.281954 2.10051 0.0029736 2.82284 0 3.57253V12.5125C0.00635666 13.2511 0.280506 13.9623 0.771546 14.514C1.26259 15.0657 1.93715 15.4205 2.67 15.5125L4.22 15.7025C6.13776 15.9356 8.06815 16.0491 10 16.0425C11.9323 16.0425 13.8627 15.9222 15.78 15.6825L17.33 15.4925C18.0628 15.4005 18.7374 15.0457 19.2285 14.494C19.7195 13.9423 19.9936 13.2311 20 12.4925V3.57253C19.9985 2.83051 19.7265 2.11448 19.235 1.55857C18.7435 1.00265 18.0662 0.644978 17.33 0.552531H17.38ZM18.05 12.5525C18.0508 12.8045 17.9565 13.0474 17.7859 13.2328C17.6154 13.4182 17.3811 13.5324 17.13 13.5525L15.58 13.7425C11.9077 14.2026 8.19232 14.2026 4.52 13.7425L2.97 13.5525C2.71889 13.5324 2.48463 13.4182 2.31406 13.2328C2.1435 13.0474 2.04919 12.8045 2.05 12.5525V3.57253C2.06192 3.32448 2.16055 3.08849 2.32869 2.90573C2.49683 2.72297 2.7238 2.60504 2.97 2.57253L4.47 2.34253C8.14273 1.88918 11.8573 1.88918 15.53 2.34253L17.08 2.53253C17.3262 2.56504 17.5532 2.68297 17.7213 2.86573C17.8894 3.04849 17.9881 3.28448 18 3.53253L18.05 12.5525Z" fill="#FFFEFE"/>
</svg>
